<svg width="1728" height="120" viewBox="0 0 1728 120" fill="none" xmlns="http://www.w3.org/2000/svg">
<rect y="40" width="40" height="40" fill="#F4E4B8"/>
<rect x="80" y="40" width="40" height="40" fill="#F4E4B8"/>
<rect x="160" y="40" width="40" height="40" fill="#F4E4B8"/>
<rect x="240" y="40" width="40" height="40" fill="#F4E4B8"/>
<rect x="240" y="80" width="40" height="40" fill="#F4E4B8"/>
<rect x="280" y="80" width="40" height="40" fill="#F4E4B8"/>
<rect x="320" y="40" width="40" height="40" fill="#F4E4B8"/>
<rect x="360" y="80" width="40" height="40" fill="#F4E4B8"/>
<rect x="440" y="80" width="40" height="40" fill="#F4E4B8"/>
<rect x="600" y="80" width="40" height="40" fill="#F4E4B8"/>
<rect x="640" y="80" width="40" height="40" fill="#F4E4B8"/>
<rect x="720" y="80" width="40" height="40" fill="#F4E4B8"/>
<rect x="840" y="80" width="40" height="40" fill="#F4E4B8"/>
<rect x="880" y="80" width="40" height="40" fill="#F4E4B8"/>
<rect x="920" y="40" width="40" height="40" fill="#F4E4B8"/>
<rect x="1000" y="80" width="40" height="40" fill="#F4E4B8"/>
<rect x="1040" y="80" width="40" height="40" fill="#F4E4B8"/>
<rect x="1120" y="80" width="40" height="40" fill="#F4E4B8"/>
<rect x="1160" y="40" width="40" height="40" fill="#F4E4B8"/>
<rect x="1240" y="80" width="40" height="40" fill="#F4E4B8"/>
<rect x="1488" y="80" width="40" height="40" fill="#F4E4B8"/>
<rect x="1200" y="80" width="40" height="40" fill="#F4E4B8"/>
<rect x="1448" y="80" width="40" height="40" fill="#F4E4B8"/>
<rect x="1280" y="40" width="40" height="40" fill="#F4E4B8"/>
<rect x="1648" y="40" width="40" height="40" fill="#F4E4B8"/>
<rect x="1384" y="40" width="40" height="40" fill="#F4E4B8"/>
<rect x="1320" y="80" width="40" height="40" fill="#F4E4B8"/>
<rect x="1688" y="80" width="40" height="40" fill="#F4E4B8"/>
<rect x="1040" y="40" width="40" height="40" fill="#F4E4B8"/>
<rect x="560" y="40" width="40" height="40" fill="#F4E4B8"/>
<rect x="440" y="40" width="40" height="40" fill="#F4E4B8"/>
<rect x="200" width="40" height="40" fill="#F4E4B8"/>
<rect x="40" y="80" width="40" height="40" fill="#F4E4B8"/>
<rect x="120" y="80" width="40" height="40" fill="#F4E4B8"/>
<rect x="120" width="40" height="40" fill="#F4E4B8"/>
<rect x="1568" y="80" width="40" height="40" fill="#F4E4B8"/>
<rect x="1608" y="80" width="40" height="40" fill="#F4E4B8"/>
<rect x="1528" y="40" width="40" height="40" fill="#F4E4B8"/>
</svg>
